<?xml version="1.0" standalone="no"?>
<!DOCTYPE svg PUBLIC "-//W3C//DTD SVG 20010904//EN"
 "http://www.w3.org/TR/2001/REC-SVG-20010904/DTD/svg10.dtd">
<svg version="1.0" xmlns="http://www.w3.org/2000/svg"
 width="316.000000pt" height="316.000000pt" viewBox="0 0 316.000000 316.000000"
 preserveAspectRatio="xMidYMid meet">
<metadata>
Created by potrace 1.14, written by Peter Selinger 2001-2017
</metadata>
<g transform="translate(0.000000,316.000000) scale(0.100000,-0.100000)"
fill="#000000" stroke="none">
<path d="M298 2062 c-18 -15 -35 -29 -38 -32 -3 -3 -43 -38 -90 -77 l-85 -70
1 -354 c1 -195 2 -360 3 -367 1 -11 57 -13 299 -11 266 2 325 7 342 28 5 6
108 95 158 137 l22 18 0 378 0 378 -290 0 -290 -1 -32 -27z m570 -379 l2 -303
-27 -24 c-101 -89 -95 -86 -158 -87 -33 -1 -171 -3 -307 -5 l-248 -3 0 290 0
291 33 30 c17 16 49 46 70 66 l38 37 137 5 c75 3 209 5 297 5 l160 0 3 -302z"/>
<path d="M272 1916 c-31 -16 -112 -100 -112 -116 0 -8 10 -27 23 -40 12 -14
38 -46 57 -70 90 -116 119 -145 131 -133 7 7 -10 35 -56 92 -36 46 -65 84 -65
86 0 2 38 43 85 91 47 49 85 91 85 94 0 9 -130 5 -148 -4z"/>
<path d="M545 1914 c-30 -15 -165 -138 -165 -150 0 -2 31 -46 70 -96 38 -51
70 -99 70 -107 0 -8 -15 -27 -32 -43 -105 -94 -218 -201 -218 -207 0 -4 38 -6
84 -4 l83 3 53 47 c29 27 74 67 99 90 l45 41 -83 108 -83 109 29 24 c153 129
207 180 199 188 -11 12 -127 10 -151 -3z"/>
<path d="M631 1676 c-8 -10 -7 -18 7 -33 9 -11 28 -35 42 -53 14 -19 36 -47
49 -63 l24 -28 -64 -66 c-35 -36 -75 -77 -89 -92 l-25 -26 60 -3 c32 -2 68 -1
80 2 26 8 125 101 125 118 0 11 -69 103 -134 178 -11 14 -31 37 -42 52 -18 23
-24 25 -33 14z"/>
<path d="M0 1475 l0 -405 380 0 c247 0 380 4 380 10 0 6 -15 10 -32 10 -18 0
-184 2 -368 3 l-335 2 -2 325 c-1 179 -2 355 -3 393 0 38 -4 67 -10 67 -7 0
-10 -142 -10 -405z"/>
<path d="M1193 1700 c-33 -13 -56 -54 -49 -87 8 -33 25 -45 102 -74 49 -19 55
-24 52 -47 -6 -49 -108 -48 -108 2 0 16 -6 21 -25 21 -22 0 -25 -5 -25 -32 0
-39 30 -62 88 -70 87 -12 153 41 128 102 -13 31 -25 38 -108 74 -58 24 -65 53
-18 70 38 13 80 -1 80 -27 0 -21 36 -27 43 -7 23 58 -81 107 -160 75z"/>
<path d="M1543 1690 c-18 -11 -33 -23 -34 -27 0 -5 -2 -18 -5 -29 -6 -34 29
-68 91 -90 61 -20 84 -48 61 -72 -15 -15 -41 -18 -78 -9 -22 6 -28 13 -28 33
0 20 -4 25 -16 20 -9 -3 -19 -6 -24 -6 -5 0 -7 -14 -6 -31 6 -80 178 -93 211
-16 20 48 1 82 -60 107 -83 35 -95 43 -95 61 0 12 11 21 32 27 47 12 76 4 80
-22 2 -13 10 -21 23 -21 15 0 21 8 23 31 3 28 -1 33 -38 48 -54 21 -98 20
-137 -4z"/>
<path d="M2031 1692 c-51 -26 -73 -73 -69 -151 4 -57 8 -67 36 -92 35 -32 85
-44 138 -35 55 11 74 37 72 96 l-3 50 -50 0 c-44 0 -51 -3 -51 -20 0 -18 14
-25 39 -21 4 0 7 -10 7 -24 0 -47 -70 -53 -110 -10 -15 15 -22 37 -23 68 -2
82 41 124 111 105 23 -6 32 -14 32 -29 0 -15 5 -20 22 -17 21 3 25 13 19 57
-1 13 -76 41 -109 41 -15 0 -42 -8 -61 -18z"/>
<path d="M2240 1625 c0 -9 7 -18 15 -21 21 -8 22 -154 1 -154 -8 0 -13 -8 -12
-17 2 -14 15 -19 59 -21 52 -3 57 -1 57 18 0 11 -7 20 -15 20 -13 0 -15 12
-13 68 3 64 4 67 29 70 16 2 29 11 32 22 9 33 -20 42 -47 14 -15 -14 -16 -14
-16 0 0 12 -11 16 -45 16 -34 0 -45 -4 -45 -15z"/>
<path d="M2462 1626 c-27 -15 -41 -38 -48 -82 -7 -47 16 -108 44 -119 65 -26
122 -10 146 40 20 42 20 78 0 121 -22 47 -93 67 -142 40z m88 -52 c19 -22 8
-95 -17 -111 -19 -13 -24 -12 -42 6 -25 25 -28 87 -5 112 16 18 46 15 64 -7z"/>
<path d="M2640 1621 c0 -11 5 -21 11 -23 7 -2 12 -31 14 -69 2 -72 15 -105 45
-114 25 -8 80 3 80 16 0 6 5 7 10 4 6 -4 8 -11 5 -16 -4 -5 12 -9 34 -9 48 0
57 10 33 38 -15 17 -18 37 -17 106 l1 86 -43 0 c-36 0 -43 -3 -43 -20 0 -11 6
-20 14 -20 10 0 13 -16 12 -67 l-1 -68 -32 -3 c-18 -2 -34 2 -34 7 -1 6 -3 16
-4 21 -1 6 -3 42 -4 80 l-1 70 -40 0 c-33 0 -40 -3 -40 -19z"/>
<path d="M2903 1621 c-1 -11 6 -21 16 -24 15 -4 17 -18 17 -117 -1 -81 -5
-115 -14 -118 -6 -2 -12 -12 -12 -23 0 -16 7 -19 54 -19 59 0 80 19 47 42 -24
17 -26 72 -2 62 81 -35 136 22 123 128 -7 63 -70 106 -116 78 -14 -9 -21 -10
-24 -1 -2 6 -23 11 -46 11 -34 0 -42 -4 -43 -19z m162 -41 c16 -26 13 -92 -5
-110 -19 -19 -59 -17 -61 4 -5 44 -6 93 -2 103 6 16 59 17 68 3z"/>
<path d="M1402 1435 c-1 -22 2 -25 28 -25 25 0 30 4 30 25 0 21 -5 25 -28 25
-22 0 -28 -5 -30 -25z"/>
<path d="M1765 1443 c2 -10 4 -21 4 -25 1 -5 12 -8 26 -8 20 0 25 5 25 25 0
21 -5 25 -29 25 -22 0 -28 -4 -26 -17z"/>
</g>
</svg>
