<svg xmlns="http://www.w3.org/2000/svg" width="109.501" height="71.137" viewBox="0 0 109.501 71.137"><defs><style>.a{fill:none;stroke:#fff;stroke-width:4px;}</style></defs><path class="a" d="M73.432,36.273A14.387,14.387,0,1,0,59.046,21.887,14.326,14.326,0,0,0,73.432,36.273Zm-38.364,0A14.387,14.387,0,1,0,20.682,21.887,14.326,14.326,0,0,0,35.068,36.273Zm0,9.591C23.895,45.864,1.5,51.475,1.5,62.648V74.637H68.637V62.648C68.637,51.475,46.242,45.864,35.068,45.864Zm38.364,0c-1.391,0-2.973.1-4.652.24,5.563,4.028,9.447,9.447,9.447,16.544V74.637H107V62.648C107,51.475,84.606,45.864,73.432,45.864Z" transform="translate(0.5 -5.5)"/></svg>