<svg xmlns="http://www.w3.org/2000/svg" width="115.736" height="70.641" viewBox="0 0 115.736 70.641"><defs><style>.a{fill:none;stroke:#fff;stroke-width:3px;}</style></defs><path class="a" d="M107.1,4.5H5.637A5.637,5.637,0,0,0,0,10.137V66.5a5.637,5.637,0,0,0,5.637,5.637H107.1a5.637,5.637,0,0,0,5.637-5.637V10.137A5.637,5.637,0,0,0,107.1,4.5ZM8.455,63.686V52.413A11.273,11.273,0,0,1,19.729,63.686Zm0-39.457V12.955H19.729A11.273,11.273,0,0,1,8.455,24.229ZM56.368,58.049c-9.339,0-16.91-8.834-16.91-19.729s7.571-19.729,16.91-19.729,16.91,8.832,16.91,19.729S65.7,58.049,56.368,58.049Zm47.913,5.637H93.007A11.273,11.273,0,0,1,104.28,52.413Zm0-39.457A11.273,11.273,0,0,1,93.007,12.955H104.28Z" transform="translate(1.5 -3)"/></svg>