<svg xmlns="http://www.w3.org/2000/svg" width="17" height="17" viewBox="0 0 17 17"><defs><style>.a,.b{fill:none;stroke:#fff;stroke-linecap:round;stroke-linejoin:round;}.b{stroke-width:2px;}</style></defs><g transform="translate(-2.5 -2.5)"><path class="a" d="M7,3h8a4,4,0,0,1,4,4v8a4,4,0,0,1-4,4H7a4,4,0,0,1-4-4V7A4,4,0,0,1,7,3Z"/><path class="a" d="M20.022,15.348a4,4,0,1,1-3.37-3.37,4,4,0,0,1,3.37,3.37Z" transform="translate(-5.036 -4.964)"/><path class="b" d="M26.25,9.75h0" transform="translate(-10.85 -3.15)"/></g></svg>