<svg id="process-factory" xmlns="http://www.w3.org/2000/svg" width="110" height="110" viewBox="0 0 512 512">
  <g id="Group_2" data-name="Group 2" transform="translate(0 136.275)">
    <g id="Group_1" data-name="Group 1">
      <path id="Path_1" data-name="Path 1" d="M7.5,497H32.064V393.912a23.517,23.517,0,0,1,15.516-41.2H96.647l7.577-121.226a7.5,7.5,0,0,1,7.485-7.032h32.065a7.5,7.5,0,0,1,7.485,7.032l7.577,121.226h17.973l7.577-121.226a7.5,7.5,0,0,1,7.485-7.032h32.064a7.5,7.5,0,0,1,7.485,7.032L239,352.71H256.97l7.577-121.226a7.5,7.5,0,0,1,7.485-7.032H304.1a7.5,7.5,0,0,1,7.485,7.032l7.577,121.226h20.89l4.646-209.1a7.5,7.5,0,0,1,7.5-7.333h48.1a7.5,7.5,0,0,1,7.5,7.333l5.359,241.167h59.29a23.517,23.517,0,0,1,15.516,41.2V497H504.5a7.5,7.5,0,0,1,0,15H7.5a7.5,7.5,0,0,1,0-15Zm406.361-80.16h26.507a7.5,7.5,0,1,1,0,15H414.194L415.642,497h57.31V431.826c-.172,0-.343.013-.516.013a7.5,7.5,0,0,1,0-15,8.532,8.532,0,0,0,0-17.064H413.482ZM136.729,239.452H118.756L111.677,352.71h32.13Zm80.161,0H198.917L191.838,352.71h32.13Zm80.161,0H279.078L272,352.71h32.13ZM383.741,497h16.9l-7.681-345.726H359.529L355.052,352.71h13.173a23.516,23.516,0,0,1,15.516,41.2ZM47.58,384.774H63.612a7.5,7.5,0,0,1,0,15H47.58c-.173,0-.344-.01-.516-.013V497H368.742V399.761c-.172,0-.343.013-.516.013H95.671a7.5,7.5,0,0,1,0-15H368.226a8.532,8.532,0,1,0,0-17.064H47.581a8.532,8.532,0,1,0,0,17.064Z" transform="translate(0 -136.275)" fill="#fefefe"/>
    </g>
  </g>
  <g id="Group_4" data-name="Group 4">
    <g id="Group_3" data-name="Group 3">
      <path id="Path_2" data-name="Path 2" d="M215.918,0a95.067,95.067,0,0,1,61.353,22.334A71.382,71.382,0,0,1,370.3,28.6,55.485,55.485,0,0,1,443.172,57.38a34.082,34.082,0,0,1,9.222-1.268A35.523,35.523,0,0,1,485.969,80.3a22.648,22.648,0,0,1,2.5-.139A23.56,23.56,0,0,1,512,103.693a7.5,7.5,0,0,1-15,0,8.542,8.542,0,0,0-8.533-8.532,8.366,8.366,0,0,0-4.335,1.252,7.5,7.5,0,0,1-11.337-5.981,20.526,20.526,0,0,0-20.4-19.319,20.226,20.226,0,0,0-10,2.738,7.5,7.5,0,0,1-10.93-4.615,40.5,40.5,0,0,0-59.13-24.926,7.5,7.5,0,0,1-9.369-1.625,56.421,56.421,0,0,0-80.86-4.907,7.5,7.5,0,0,1-10.249-.15,80.625,80.625,0,1,0,14.918,96.64,7.5,7.5,0,0,1,9.721-3.218A56.353,56.353,0,0,0,362.965,116.6a7.5,7.5,0,0,1,9.369-1.625,40.45,40.45,0,0,0,52.114-10.659,7.5,7.5,0,0,1,5.91-2.931h.037a7.5,7.5,0,0,1,5.9,2.872,20.4,20.4,0,0,0,16.1,7.963,7.5,7.5,0,0,1,0,15,35.049,35.049,0,0,1-21.669-7.474A55.433,55.433,0,0,1,370.3,130.693a71.526,71.526,0,0,1-50.173,20.58,70.694,70.694,0,0,1-23.607-4.04A95.679,95.679,0,1,1,215.918,0Z" transform="translate(-120.241)" fill="#fff"/>
    </g>
  </g>
  <g id="Group_6" data-name="Group 6" transform="translate(312.629 416.839)">
    <g id="Group_5" data-name="Group 5">
      <path id="Path_3" data-name="Path 3" d="M191.871,416.839a7.5,7.5,0,0,1,7.5,7.5v16.032a7.5,7.5,0,0,1-15,0V424.339A7.5,7.5,0,0,1,191.871,416.839Z" transform="translate(-184.371 -416.839)" fill="#fff"/>
    </g>
  </g>
  <g id="Group_8" data-name="Group 8" transform="translate(280.564 416.839)">
    <g id="Group_7" data-name="Group 7">
      <path id="Path_4" data-name="Path 4" d="M223.936,416.839a7.5,7.5,0,0,1,7.5,7.5v16.032a7.5,7.5,0,0,1-15,0V424.339A7.5,7.5,0,0,1,223.936,416.839Z" transform="translate(-216.436 -416.839)" fill="#fff"/>
    </g>
  </g>
  <g id="Group_10" data-name="Group 10" transform="translate(248.5 416.839)">
    <g id="Group_9" data-name="Group 9">
      <path id="Path_5" data-name="Path 5" d="M256,416.839a7.5,7.5,0,0,1,7.5,7.5v16.032a7.5,7.5,0,0,1-15,0V424.339A7.5,7.5,0,0,1,256,416.839Z" transform="translate(-248.5 -416.839)" fill="#fff"/>
    </g>
  </g>
  <g id="Group_12" data-name="Group 12" transform="translate(216.436 416.839)">
    <g id="Group_11" data-name="Group 11">
      <path id="Path_6" data-name="Path 6" d="M288.064,416.839a7.5,7.5,0,0,1,7.5,7.5v16.032a7.5,7.5,0,0,1-15,0V424.339A7.5,7.5,0,0,1,288.064,416.839Z" transform="translate(-280.564 -416.839)" fill="#fff"/>
    </g>
  </g>
  <g id="Group_14" data-name="Group 14" transform="translate(184.371 416.839)">
    <g id="Group_13" data-name="Group 13">
      <path id="Path_7" data-name="Path 7" d="M320.129,416.839a7.5,7.5,0,0,1,7.5,7.5v16.032a7.5,7.5,0,0,1-15,0V424.339A7.5,7.5,0,0,1,320.129,416.839Z" transform="translate(-312.629 -416.839)" fill="#fff"/>
    </g>
  </g>
  <g id="Group_16" data-name="Group 16" transform="translate(152.307 416.839)">
    <g id="Group_15" data-name="Group 15">
      <path id="Path_8" data-name="Path 8" d="M352.193,416.839a7.5,7.5,0,0,1,7.5,7.5v16.032a7.5,7.5,0,0,1-15,0V424.339A7.5,7.5,0,0,1,352.193,416.839Z" transform="translate(-344.693 -416.839)" fill="#fff"/>
    </g>
  </g>
  <g id="Group_18" data-name="Group 18" transform="translate(120.242 416.839)">
    <g id="Group_17" data-name="Group 17">
      <path id="Path_9" data-name="Path 9" d="M384.258,416.839a7.5,7.5,0,0,1,7.5,7.5v16.032a7.5,7.5,0,0,1-15,0V424.339A7.5,7.5,0,0,1,384.258,416.839Z" transform="translate(-376.758 -416.839)" fill="#fff"/>
    </g>
  </g>
  <g id="Group_20" data-name="Group 20" transform="translate(88.177 416.839)">
    <g id="Group_19" data-name="Group 19">
      <path id="Path_10" data-name="Path 10" d="M416.323,416.839a7.5,7.5,0,0,1,7.5,7.5v16.032a7.5,7.5,0,0,1-15,0V424.339A7.5,7.5,0,0,1,416.323,416.839Z" transform="translate(-408.823 -416.839)" fill="#fff"/>
    </g>
  </g>
</svg>
